HIERARCHY
ROOT Hips
{
	OFFSET	0	0	0
	CHANNELS 6  Xposition Yposition Zposition Xrotation Yrotation Zrotation
	JOINT Spine
	{
		OFFSET	0	52.8872	27.321
		CHANNELS 3  Xrotation Yrotation Zrotation
		JOINT Spine1
		{
			OFFSET	0	92.3527	-24.7373
			CHANNELS 3  Xrotation Yrotation Zrotation
			JOINT Spine2
			{
				OFFSET	0	70.0066	7.50365
				CHANNELS 3  Xrotation Yrotation Zrotation
				JOINT Spine3
				{
					OFFSET	0	83.7771	5.11238
					CHANNELS 3  Xrotation Yrotation Zrotation
					JOINT Spine4
					{
						OFFSET	0	124.016	-9.40019
						CHANNELS 3  Xrotation Yrotation Zrotation
						JOINT Neck
						{
							OFFSET	0	59.2047	-41.4763
							CHANNELS 3  Xrotation Yrotation Zrotation
							JOINT Head
							{
								OFFSET	0	71.0786	-21.2741
								CHANNELS 3  Xrotation Yrotation Zrotation
								End Site
								{
									OFFSET	0	148.259	-7.17383
								}
							}
						}
					}
					JOINT LeftShoulder
					{
						OFFSET	-35.6218	150.733	-67.7803
						CHANNELS 3  Xrotation Yrotation Zrotation
						JOINT LeftArm
						{
							OFFSET	-118.824	-21.2741	27.2937
							CHANNELS 3  Xrotation Yrotation Zrotation
							JOINT LeftForeArm
							{
								OFFSET	-262.535	0	0
								CHANNELS 3  Xrotation Yrotation Zrotation
								JOINT LeftHand
								{
									OFFSET	-218.381	0	0
									CHANNELS 3  Xrotation Yrotation Zrotation
									End Site
									{
										OFFSET	-79.698	0	-0.000362396
									}
								}
							}
						}
					}
					JOINT RightShoulder
					{
						OFFSET	35.6218	150.733	-67.7803
						CHANNELS 3  Xrotation Yrotation Zrotation
						JOINT RightArm
						{
							OFFSET	118.824	-21.2741	27.2937
							CHANNELS 3  Xrotation Yrotation Zrotation
							JOINT RightForeArm
							{
								OFFSET	262.535	0	0
								CHANNELS 3  Xrotation Yrotation Zrotation
								JOINT RightHand
								{
									OFFSET	218.381	0	0
									CHANNELS 3  Xrotation Yrotation Zrotation
									End Site
									{
										OFFSET	79.698	0	-0.000362396
									}
								}
							}
						}
					}
				}
			}
		}
	}
	JOINT LeftUpLeg
	{
		OFFSET	-78.6843	-26.4436	-13.6605
		CHANNELS 3  Xrotation Yrotation Zrotation
		JOINT LeftLeg
		{
			OFFSET	0	-374.728	0
			CHANNELS 3  Xrotation Yrotation Zrotation
			JOINT LeftFoot
			{
				OFFSET	0	-360.033	0
				CHANNELS 3  Xrotation Yrotation Zrotation
				JOINT LeftToeBase
				{
					OFFSET	2.4765	-35.0047	-124.568
					CHANNELS 3  Xrotation Yrotation Zrotation
					End Site
					{
						OFFSET	0.991829	-11.9044	-74.2526
					}
				}
			}
		}
	}
	JOINT RightUpLeg
	{
		OFFSET	78.6843	-26.4436	-13.6605
		CHANNELS 3  Xrotation Yrotation Zrotation
		JOINT RightLeg
		{
			OFFSET	0	-374.728	0
			CHANNELS 3  Xrotation Yrotation Zrotation
			JOINT RightFoot
			{
				OFFSET	0	-360.033	0
				CHANNELS 3  Xrotation Yrotation Zrotation
				JOINT RightToeBase
				{
					OFFSET	-2.4765	-35.0047	-124.568
					CHANNELS 3  Xrotation Yrotation Zrotation
					End Site
					{
						OFFSET	-0.991829	-11.9044	-74.2526
					}
				}
			}
		}
	}
}
MOTION
Frames: 20
Frame Time: 0.008333
 1425.03 1051.82 -112.936 157.078 -43.7815 -25.5528 1.10736 0.54065 2.28512 7.84498 1.08063 3.04723 1.68982 3.23931 3.81446 0.0436456 0.540316 3.04682 11.4957 0.151805 0.746391 29.6886 -2.05258 3.37386 8.97056 -7.8125 1.18472 171.939 165.887 166.63 175.487 -45.5363 67.7156 0.550751 -6.0683 -0.611814 -0 -6.90003 -20.5881 172.938 -159.333 -169.602 159.342 40.7304 -59.0916 0.329654 5.71002 0.508333 -0 -7.9969 25.3329 153.994 -167.533 -170.423 158.587 -165.225 177.283 117.581 -179.975 -175.299 28.2093 0 0 146.769 163.122 -156.885 164.257 -167.433 176.394 117.547 -179.965 173.954 28.5166 0 0
 1450.06 1042.53 -82.8581 164.271 -43.3475 -20.878 0.964047 0.387713 2.30286 6.8159 0.774938 3.07069 1.27671 2.32293 3.84117 179.379 179.613 -176.93 11.5226 0.153341 0.752131 30.2186 -2.46795 3.30825 9.12942 -8.09697 1.14254 172.205 165.529 167.16 173.798 -44.9818 68.6922 0.560149 -6.38802 -0.581391 -0 -7.61252 -23.1086 173.196 -158.919 -170.073 159.002 40.8634 -61.3581 0.511119 5.68871 0.448906 -0 -8.81415 26.9784 155.821 -168.444 -170.048 158.777 -165.562 175.984 117.708 -179.973 -175.289 28.2124 0 0 147.887 162.342 -158.292 165.855 -167.644 175.887 117.612 -179.969 173.939 28.5272 0 0
 1472.96 1033.93 -55.8434 170.452 -44.0113 -16.2086 0.797117 0.184742 2.12995 5.60959 0.369285 2.83997 0.814596 1.10709 3.55055 178.621 179.815 -177.16 11.5039 0.141601 0.695715 30.695 -2.90802 3.23904 9.27198 -8.38656 1.09468 172.657 162.301 168.561 172.734 -44.7274 69.5818 0.63179 -6.26318 -0.525403 -0 -8.8271 -26.6021 172.68 -159.069 -169.266 158.732 40.4368 -61.8353 0.744535 5.7055 0.458787 -0 -10.1409 29.7454 157.572 -168.848 -169.821 160.493 -166.012 175.898 117.81 -179.972 -175.301 28.2296 0 0 150.452 161.143 -159.787 166.47 -167.845 175.633 117.674 -179.974 173.965 28.5426 0 0
 1495.21 1025.56 -29.7329 177.085 -42.8854 -11.6704 0.617489 -0.0591603 2.13479 4.31287 -0.118257 2.84639 0.320693 -0.354524 3.55805 177.822 -179.941 -177.154 11.4448 0.141205 0.697447 31.0957 -3.36835 3.17128 9.39174 -8.68843 1.04318 173.13 160.883 169.59 172.372 -44.4885 71.2108 0.641027 -5.91192 -0.471489 -0 -10.686 -31.8225 172.593 -159.132 -169.121 158.416 40.3762 -62.7839 0.995115 5.7092 0.370738 -0 -11.9332 33.8247 159.363 -170.004 -169.456 161.791 -166.565 174.725 117.893 -179.971 -175.327 28.2276 0 0 152.195 159.812 -161.385 167.636 -168.04 175.169 117.747 -179.979 174.026 28.5254 0 0
 1518.14 1018.45 -5.19436 2.80288 -139.708 172.935 0.508015 -0.315961 1.96146 3.50921 -0.631634 2.6154 0.0388437 -1.89379 3.27084 177.32 -179.684 -177.385 11.4231 0.129494 0.640859 31.4025 -3.84586 3.1063 9.48329 -9.00625 0.988814 173.543 161.042 170.204 171.098 -44.304 72.5528 0.689344 -5.72856 -0.372952 -0 -12.5867 -36.9674 172.621 -158.652 -169.266 158.193 40.4939 -64.746 1.20443 5.70921 0.312311 -0 -13.8219 38.9033 162.071 -170.73 -170.191 162.622 -167.21 173.773 117.962 -179.972 -175.359 28.2181 0 0 155.378 159.573 -164.503 168.855 -168.231 175.436 117.848 -179.986 174.114 28.5226 0 0
 1540.45 1012.73 18.1119 7.86642 -141.59 176.821 0.392978 -0.42141 1.86289 2.69145 -0.842473 2.48406 179.706 -177.474 -176.892 176.828 -179.579 -177.516 11.3636 0.122353 0.608774 31.6028 -4.33803 3.04179 9.54281 -9.33885 0.931094 173.295 161.364 169.757 169.79 -43.8905 72.538 0.781436 -5.72189 -0.170004 -0 -14.6042 -41.5588 172.637 -157.825 -169.469 157.608 40.4114 -66.0491 1.33704 5.71312 0.163162 -0 -15.7335 43.7943 164.803 -172.175 -170.494 163.766 -167.929 173.21 118.023 -179.974 -175.392 28.1919 0 0 158.913 159.457 -166.968 169.731 -168.418 175.921 117.992 -179.992 174.224 28.5196 0 0
 1562.39 1008.73 39.158 12.6216 -143.897 -178.918 0.251749 -0.578445 1.60841 1.69186 -1.15654 2.14487 179.297 -176.532 -177.315 176.248 -179.422 -177.855 11.2385 0.104487 0.525827 31.69 -4.84222 2.97262 9.56822 -9.68046 0.868568 172.779 161.591 168.899 168.162 -43.549 71.3699 0.787742 -5.71039 -0.102627 -0 -16.5307 -46.3718 171.661 -157.333 -168.141 156.703 39.9631 -64.8607 1.38312 5.71668 0.0699754 -0 -17.4824 48.9077 167.68 -172.696 -171.475 164.84 -168.701 173.092 118.077 -179.976 -175.416 28.1834 0 0 162.627 157.655 -170.192 170.075 -168.604 176.475 118.192 -179.999 174.345 28.5041 0 0
 1584.62 1005.93 59.8619 16.5372 -146.315 -175.112 0.160903 -0.705678 1.34093 1.05475 -1.41106 1.78831 179.03 -175.768 -177.759 175.893 -179.294 -178.212 11.1258 0.0862453 0.438543 31.6632 -5.35514 2.8923 9.55902 -10.0224 0.799382 172.383 161.898 168.205 166.477 -43.1942 70.7493 0.791881 -5.70591 0.0331029 -0 -17.1008 -48.7971 171.003 -157.145 -167.212 155.691 39.5185 -64.3716 1.45764 5.71506 -0.00523922 -0 -19.4218 54.9686 170.941 -173.903 -172.51 165.969 -169.506 173.001 118.127 -179.98 -175.425 28.1737 0 0 167.093 157.36 -173.462 170.612 -168.789 177.395 118.462 179.995 174.474 28.4947 0 0
 1605.82 1004.35 79.6357 20.265 -148.952 -171.629 0.0391549 -0.84917 1.11088 0.202741 -1.69809 1.48166 178.673 -174.907 -178.141 175.432 -179.151 -178.519 10.9438 0.0702917 0.363518 31.5257 -5.87267 2.79427 9.5161 -10.3544 0.721778 171.524 162.265 166.732 164.792 -42.7504 68.8466 0.73616 -5.70844 0.0510328 -0 -18.4649 -51.9435 170.515 -157.333 -166.428 154.904 39.0939 -63.901 1.58344 5.70929 -0.0168995 -0 -21.3559 60.6619 174.436 -174.466 -173.119 166.498 -170.32 172.897 118.172 -179.984 -175.413 28.156 0 0 171.309 157.096 -176.155 170.967 -168.972 178.035 118.808 179.989 174.604 28.4833 0 0
 1626.48 1005.22 99.2472 23.5521 -151.101 -168.326 179.934 -179.038 -179.179 179.476 -178.077 -178.905 178.352 -174.23 -178.625 175.059 -179.038 -178.905 10.7449 0.0510155 0.268835 31.2846 -6.38988 2.67284 9.44149 -10.6667 0.634452 170.567 162.358 165.131 162.839 -42.1338 66.359 0.750171 -5.70836 0.0766876 -0 -19.3687 -54.1874 169.032 -157.03 -164.261 153.547 38.2502 -61.19 1.52618 5.71268 -0.255569 -0 -23.1927 63.4847 178.224 -174.826 -173.529 166.876 -171.123 172.866 118.214 -179.988 -175.374 28.1495 0 0 175.784 155.742 -178.597 171.175 -169.151 178.596 119.234 179.984 174.733 28.5008 0 0
 1647.98 1007.17 118.967 26.6898 -153.041 -165.248 179.845 -178.977 -179.399 178.871 -177.955 -179.198 178.083 -173.865 -178.992 174.768 -178.977 -179.198 10.5315 0.0366295 0.197029 30.95 -6.90141 2.52374 9.33816 -10.9502 0.536721 169.289 162.694 162.876 160.813 -41.3953 63.4936 0.755771 -5.71183 0.0836336 -0 -19.9692 -55.7061 167.736 -157.418 -162.088 151.889 37.075 -58.4318 1.59811 5.71668 -0.328594 -0 -24.8773 67.1584 1.76933 -4.35071 6.09665 167.803 -171.896 173.118 118.256 -179.992 -175.304 28.1276 0 0 0.43817 24.658 -0.888296 171.078 -169.324 179.413 119.737 179.981 174.86 28.4898 0 0
 1669.53 1010.55 139.911 29.5444 -154.987 -162.233 179.789 -178.91 -179.691 178.499 -177.82 -179.587 177.903 -173.459 -179.481 174.623 -178.91 -179.588 10.3247 0.0184722 0.101398 30.5337 -7.40181 2.34422 9.20976 -11.1975 0.428523 167.924 163.28 160.299 158.075 -40.2819 59.9939 0.783682 -5.71514 0.115031 -0 -20.2515 -56.4037 166.202 -157.971 -159.343 150.162 35.7371 -55.5048 1.62508 5.77513 -0.342385 -0 -26.4067 69.707 5.45241 -3.44755 5.9901 168.664 -172.624 173.017 118.305 -179.996 -175.203 28.1125 0 0 4.98867 24.8027 -2.85961 171.438 -169.487 -179.795 120.311 179.979 174.985 28.501 0 0
 1691.06 1014.99 160.622 32.102 -156.878 -159.48 179.738 -178.853 -179.952 178.165 -177.706 -179.935 177.742 -173.118 -179.919 174.51 -178.853 -179.935 10.1008 0.00283111 0.0158925 30.0483 -7.88587 2.13309 9.06018 -11.4028 0.310341 166.738 163.881 157.918 155.749 -39.0786 57.0448 0.820574 -5.7224 0.147747 -0 -20.314 -56.4298 165.028 -158.677 -156.995 148.563 34.4181 -53.0386 1.56934 5.8781 -0.368561 -0 -27.7731 71.5114 9.39099 -3.2647 6.11061 169.414 -173.295 173.093 118.37 -180 -175.074 28.1197 0 0 9.61833 24.8354 -4.54493 171.572 -169.634 -179.042 120.942 179.978 175.11 28.5188 0 0
 1712.72 1019.92 181.992 34.9019 -158.849 -156.96 179.657 -178.845 179.864 177.611 -177.69 179.818 177.499 -173.069 179.771 174.278 -178.845 179.818 9.8266 -0.00776061 -0.0448051 29.505 -8.34853 1.8906 8.8929 -11.5621 0.183164 165.715 164.866 155.583 153.842 -37.9658 54.6311 0.846175 -5.72402 0.168415 -0 -20.2239 -56.0691 164.485 -159.197 -155.766 147.358 33.4129 -51.9213 1.37972 5.79306 -0.334465 -0 -28.6345 72.4166 12.869 -2.66368 6.73163 169.97 -173.901 172.966 118.468 179.998 -174.92 28.1249 0 0 13.5254 24.9352 -5.73173 171.964 -169.762 -178.131 121.618 179.978 175.236 28.5214 0 0
 1734.39 1025.49 203.786 37.5036 -160.735 -154.652 179.581 -178.772 179.712 177.092 -177.545 179.616 177.277 -172.634 179.517 174.073 -178.772 179.617 9.5418 -0.0158839 -0.0944947 28.9112 -8.78483 1.61843 8.71042 -11.6738 0.0484346 165.282 165.065 154.648 152.553 -37.1749 53.9711 0.859369 -5.72379 0.165957 -0 -19.9823 -55.2551 164.216 -160.332 -154.709 146.291 32.5792 -51.338 1.35996 5.71939 -0.279235 -0 -28.6492 72.7927 16.6951 -2.73889 7.68579 170.056 -174.438 172.723 118.619 179.996 -174.746 28.1332 0 0 17.5031 25.4011 -6.45566 172.083 -169.869 -177.629 122.32 179.979 175.366 28.5485 0 0
 1756.78 1031.51 226.507 39.9178 -162.74 -152.15 179.512 -178.728 179.443 176.637 -177.457 179.257 177.059 -172.37 179.064 173.911 -178.728 179.257 9.25288 -0.0298431 -0.183185 28.2703 -9.18995 1.31923 8.51396 -11.738 -0.0921054 165.07 165.91 153.872 151.132 -36.2321 53.5506 0.802813 -5.72631 0.181051 -0 -19.636 -54.1646 164.049 -161.147 -153.99 145.449 31.9608 -51.2652 1.32547 5.71426 -0.256175 -0 -28.65 72.7866 20.4022 -2.72965 8.45613 170.277 -174.901 172.598 118.844 179.995 -174.559 28.1447 0 0 21.3933 24.9786 -7.27952 172.121 -169.951 -177.063 123.034 179.981 175.502 28.5604 0 0
 1779.76 1037.56 250.382 42.9504 -164.424 -149.894 179.411 -178.811 179.279 175.941 -177.623 179.038 176.772 -172.869 178.789 173.617 -178.811 179.039 8.91382 -0.0372362 -0.237409 27.5815 -9.559 0.996409 8.30345 -11.7565 -0.236522 164.898 167.232 152.978 149.897 -35.4574 53.3377 0.784728 -5.72447 0.170786 -0 -19.1217 -52.6565 164.061 -161.5 -153.84 144.583 31.3446 -51.2988 1.30081 5.71424 -0.256665 -0 -28.6501 72.2456 23.5416 -2.21232 9.3807 170.398 -175.288 172.391 119.171 179.995 -174.365 28.1424 0 0 24.7169 24.8051 -7.73351 172.293 -170.006 -176.518 123.749 179.984 175.647 28.5798 0 0
 1804.55 1042.79 275.911 46.6339 -165.414 -147.481 179.311 -178.892 179.19 175.248 -177.785 178.919 176.505 -173.355 178.641 173.331 -178.892 178.92 8.55879 -0.040172 -0.266922 26.8405 -9.88628 0.654177 8.07786 -11.7317 -0.382599 164.815 167.325 152.767 148.632 -34.9686 53.7979 0.782765 -5.72055 0.175837 -0 -18.3787 -50.8219 164.173 -162.87 -153.404 143.425 30.4837 -51.4187 1.25403 5.71546 -0.219627 -0 -28.6498 71.1492 26.2358 -1.25911 9.63427 170.921 -175.599 172.42 119.632 179.995 -174.168 28.1248 0 0 28.244 24.6339 -8.8497 172.033 -170.03 -175.81 124.46 179.986 175.801 28.5904 0 0
 1830.08 1046.84 303.932 50.3754 -167.164 -145.648 179.216 -178.981 179.202 174.573 -177.963 178.935 176.268 -173.889 178.662 173.062 -178.981 178.936 8.18752 -0.0378798 -0.263272 26.0416 -10.1647 0.297819 7.83553 -11.6662 -0.527747 164.738 168.521 152.123 147.367 -34.0013 54.4118 0.561737 -5.7212 0.15872 -0 -17.6476 -48.4376 164.313 -164.611 -152.888 141.698 29.3781 -50.978 0.942778 5.72154 -0.203318 -0 -28.6362 69.9493 28.6106 -0.511659 10.5834 171.221 -175.833 172.203 120.263 179.997 -173.971 28.1171 0 0 30.3905 24.2159 -8.78039 172.863 -170.019 -175.429 125.177 179.989 175.968 28.5804 0 0
 1856.99 1050.53 332.8 53.6238 -169.11 -144.037 179.149 -179.056 179.194 174.103 -178.113 178.925 176.117 -174.339 178.651 172.92 -179.056 178.926 7.8255 -0.0365577 -0.265995 25.1781 -10.3856 -0.066553 7.57455 -11.5614 -0.669132 164.797 169.377 151.915 145.634 -33.8132 55.1914 0.525093 -5.72169 0.124148 -0 -16.5543 -45.8855 164.354 -165.186 -152.715 139.929 28.4346 -50.8857 0.744599 5.77868 -0.168615 -0 -28.5705 68.2774 31.4472 -0.0858079 11.3604 171.331 -175.989 172.343 121.104 179.998 -173.776 28.1079 0 0 33.3087 23.6483 -8.81719 172.334 -169.967 -175.006 125.92 179.992 176.149 28.5338 0 0
